<?xml version="1.0"?>
<svg xmlns="http://www.w3.org/2000/svg" viewBox="0 0 16 16">
    <path style="line-height:normal;text-indent:0;text-align:start;text-decoration-line:none;text-decoration-style:solid;text-decoration-color:#000;text-transform:none;block-progression:tb;isolation:auto;mix-blend-mode:normal" d="M 2 2 L 2 12 C 2 13.098531 2.9014686 14 4 14 L 8.5566406 14 C 9.2511046 15.189622 10.527861 16 12 16 C 14.203219 16 16 14.203219 16 12 L 15 12 C 15 13.662781 13.662781 15 12 15 C 10.337219 15 9 13.662781 9 12 C 9 10.337219 10.337219 9 12 9 L 13 9 L 13 11 L 15.5 8.5 L 13 6 L 13 8 L 12 8 C 11.652876 8 11.321508 8.0588128 11 8.1425781 L 11 6 L 12 6 L 12 5 L 11 5 L 11 2 L 2 2 z M 3 3 L 10 3 L 10 8.5566406 C 9.6784547 8.7443487 9.3817453 8.9657875 9.125 9.2324219 L 9.125 9 L 8.625 9 L 7.5 9 L 7 9 L 7 10 L 7.5 10 L 8.5566406 10 C 8.3755138 10.310272 8.2352316 10.644377 8.1425781 11 L 7.5 11 L 7 11 L 7 12 L 7.5 12 L 8 12 C 8 12.347124 8.0588128 12.678492 8.1425781 13 L 4 13 C 3.4425314 13 3 12.557469 3 12 L 3 3 z M 4 5 L 4 6 L 4.5 6 L 8.5 6 L 9 6 L 9 5 L 8.5 5 L 4.5 5 L 4 5 z M 4 7 L 4 8 L 4.5 8 L 5.5 8 L 6 8 L 6 7 L 5.5 7 L 4.5 7 L 4 7 z M 7 7 L 7 8 L 7.5 8 L 8.5 8 L 9 8 L 9 7 L 8.5 7 L 7.5 7 L 7 7 z M 4 9 L 4 10 L 4.5 10 L 5.5 10 L 6 10 L 6 9 L 5.5 9 L 4.5 9 L 4 9 z M 4 11 L 4 12 L 4.5 12 L 5.5 12 L 6 12 L 6 11 L 5.5 11 L 4.5 11 L 4 11 z"/>
</svg>
